<svg width="1859" height="1704" viewBox="0 0 1859 1704" fill="none" xmlns="http://www.w3.org/2000/svg">
<path d="M184.892 699.246C195.505 623.726 276.228 523.966 315.264 483.526C341.299 440.265 402.477 350.695 438.908 338.506L820.134 210.957C934.631 172.649 1120.72 171.015 1168.79 197.955C1216.87 224.896 1375.97 242.069 1525.55 377.812C1675.14 513.556 1652.76 693.144 1655.6 766.509C1658.45 839.873 1584.77 1013.16 1550.91 1046C1517.05 1078.84 1508.52 1165.79 1476.73 1235.09C1444.94 1304.4 1412.47 1354.38 1361.73 1371.35C1310.99 1388.33 1183.2 1460.42 1109.32 1455.81C1035.43 1451.19 856.907 1458.12 813.166 1457.11C769.425 1456.1 519.16 1369.68 472.077 1311.12C424.995 1252.56 234.763 1181.26 217.109 1128.5C199.456 1075.73 159.068 967.993 147.672 920.958C136.275 873.923 171.627 793.646 184.892 699.246Z" fill="#FFCF39"/>
</svg>
