<svg width="951" height="971" viewBox="0 0 951 971" fill="none" xmlns="http://www.w3.org/2000/svg">
<path d="M131.987 620.298C116.282 586.739 122.693 524.722 127.861 497.908C126.989 473.392 128.144 420.705 139.744 406.083L261.122 253.071C297.576 207.115 372.9 157.108 399.615 155.327C426.331 153.547 495.656 118.35 592.546 133.949C689.436 149.547 727.945 228.593 748.557 257.706C769.168 286.818 785.121 376.9 780.044 399.249C774.968 421.597 794.552 459.255 799.988 495.899C805.424 532.543 805.458 561.498 789.302 581.865C773.146 602.232 740.238 665.465 708.936 683.177C677.634 700.888 606.791 751.047 588.716 762.234C570.641 773.421 445.843 804.602 411.147 793.245C376.45 781.888 280.101 803.305 258.923 786.506C237.745 769.706 192.735 736.554 175.623 720.428C158.512 704.301 151.617 662.246 131.987 620.298Z" fill="#1A6AE3"/>
</svg>
