<svg width="1313" height="1566" viewBox="0 0 1313 1566" fill="none" xmlns="http://www.w3.org/2000/svg">
<path d="M269.368 579.009C234.192 555.511 173.28 522.524 145.272 505.019C105.886 480.403 52.1948 446.346 38.0456 425.297C11.1034 385.218 13.5477 363.229 26.1132 347.602C32.4986 339.66 54.1625 321.898 89.734 314.384C134.198 304.992 181.636 308.858 210.652 311.481C239.667 314.104 358.833 269.1 405.221 269.1C467.364 269.1 636.537 252.783 699.515 269.1C813.25 298.568 841.637 340.993 864.727 385.218C887.818 429.442 918.825 457.081 954.878 526.133C990.931 595.185 990.509 623.859 1009.14 659.548C1027.78 695.238 1031.8 710.739 1041.93 730.136C1052.05 749.532 1094.04 891.987 1106.3 941.877C1116.73 984.376 1124.68 1019.87 1124.68 1077.83C1124.68 1153.69 1114.55 1178.89 1106.3 1227.21C1091.42 1314.33 1070.41 1344.38 1055.53 1341.76C1040.65 1339.13 1003.46 1305.73 988.339 1282.82C969.437 1254.18 916.596 1232.4 834.966 1176.28C753.336 1120.17 762.983 1112.17 734.194 1077.83C711.163 1050.36 669.208 1018.29 651.109 1005.69C621.139 970.979 550.877 884.441 509.588 815.951C457.977 730.338 423.022 723.904 364.736 659.548C306.451 595.193 313.338 608.382 269.368 579.009Z" fill="#F94E1E"/>
</svg>
